<svg xmlns="http://www.w3.org/2000/svg" width="24" height="24" viewBox="0 0 24 24" fill="none"><path d="M7.85844 2.06995C6.79443 2.12015 6.06783 2.28995 5.43263 2.53955C4.77523 2.79575 4.21802 3.13955 3.66362 3.69596C3.10922 4.25236 2.76782 4.80996 2.51342 5.46836C2.26722 6.10497 2.10042 6.83217 2.05342 7.89677C2.00642 8.96138 1.99602 9.30358 2.00122 12.0192C2.00642 14.7348 2.01842 15.0752 2.07002 16.142C2.12082 17.2058 2.29002 17.9322 2.53962 18.5676C2.79622 19.225 3.13962 19.782 3.69622 20.3366C4.25282 20.8912 4.81003 21.2318 5.47003 21.4866C6.10603 21.7324 6.83343 21.9 7.89784 21.9466C8.96224 21.9932 9.30484 22.004 12.0197 21.9988C14.7345 21.9936 15.0763 21.9816 16.1429 21.931C17.2095 21.8804 17.9321 21.71 18.5677 21.4616C19.2251 21.2044 19.7825 20.8616 20.3367 20.3048C20.8909 19.748 21.2321 19.19 21.4863 18.5312C21.7327 17.8952 21.9001 17.1678 21.9463 16.1042C21.9929 15.0368 22.0039 14.696 21.9987 11.9808C21.9935 9.26558 21.9813 8.92518 21.9307 7.85877C21.8801 6.79237 21.7107 6.06817 21.4613 5.43236C21.2043 4.77496 20.8613 4.21836 20.3049 3.66336C19.7485 3.10835 19.1901 2.76735 18.5315 2.51375C17.8951 2.26755 17.1681 2.09975 16.1037 2.05375C15.0393 2.00775 14.6967 1.99595 11.9809 2.00115C9.26504 2.00635 8.92504 2.01795 7.85844 2.06995ZM7.97524 20.1476C7.00023 20.1052 6.47083 19.9432 6.11803 19.8076C5.65083 19.6276 5.31803 19.41 4.96643 19.0618C4.61483 18.7136 4.39882 18.3796 4.21642 17.9134C4.07942 17.5606 3.91442 17.0318 3.86882 16.0568C3.81922 15.003 3.80882 14.6866 3.80302 12.0168C3.79722 9.34698 3.80742 9.03098 3.85362 7.97677C3.89522 7.00257 4.05822 6.47257 4.19362 6.11997C4.37362 5.65216 4.59043 5.31996 4.93943 4.96856C5.28843 4.61716 5.62143 4.40076 6.08803 4.21836C6.44043 4.08076 6.96923 3.91716 7.94384 3.87076C8.99844 3.82076 9.31444 3.81076 11.9839 3.80496C14.6533 3.79916 14.9701 3.80916 16.0251 3.85556C16.9993 3.89796 17.5295 4.05936 17.8817 4.19556C18.3491 4.37556 18.6817 4.59176 19.0331 4.94136C19.3845 5.29096 19.6011 5.62276 19.7835 6.09037C19.9213 6.44177 20.0849 6.97037 20.1309 7.94557C20.1811 9.00018 20.1925 9.31638 20.1973 11.9856C20.2021 14.6548 20.1927 14.9718 20.1465 16.0256C20.1039 17.0006 19.9423 17.5302 19.8065 17.8834C19.6265 18.3504 19.4095 18.6834 19.0603 19.0346C18.7111 19.3858 18.3785 19.6022 17.9117 19.7846C17.5597 19.922 17.0303 20.086 16.0565 20.1324C15.0019 20.182 14.6859 20.1924 12.0155 20.1982C9.34504 20.204 9.03004 20.1932 7.97544 20.1476M16.1275 6.65537C16.1279 6.89272 16.1986 7.12463 16.3308 7.32176C16.463 7.51888 16.6507 7.67238 16.8702 7.76283C17.0896 7.85327 17.331 7.87661 17.5637 7.82989C17.7964 7.78317 18.01 7.66848 18.1776 7.50034C18.3451 7.3322 18.459 7.11815 18.5049 6.88527C18.5507 6.65239 18.5265 6.41113 18.4352 6.19202C18.344 5.97291 18.1898 5.78578 17.9922 5.65429C17.7946 5.52281 17.5624 5.45289 17.3251 5.45336C17.0069 5.454 16.702 5.58098 16.4774 5.80639C16.2528 6.0318 16.1269 6.33718 16.1275 6.65537ZM6.86543 12.01C6.87103 14.846 9.17424 17.1398 12.0097 17.1344C14.8451 17.129 17.1405 14.826 17.1351 11.99C17.1297 9.15398 14.8259 6.85957 11.9901 6.86517C9.15424 6.87077 6.86003 9.17438 6.86543 12.01ZM8.66664 12.0064C8.66534 11.3471 8.85956 10.7022 9.22476 10.1533C9.58995 9.60444 10.1097 9.17616 10.7183 8.92265C11.3269 8.66915 11.997 8.60181 12.6439 8.72915C13.2908 8.85649 13.8853 9.17279 14.3524 9.63805C14.8196 10.1033 15.1382 10.6966 15.2681 11.343C15.398 11.9894 15.3333 12.6597 15.0822 13.2693C14.8311 13.8789 14.4049 14.4004 13.8575 14.7677C13.31 15.1351 12.6659 15.3319 12.0067 15.3332C11.5689 15.3341 11.1352 15.2488 10.7304 15.0821C10.3257 14.9154 9.95768 14.6706 9.64752 14.3617C9.33736 14.0527 9.0911 13.6857 8.9228 13.2816C8.7545 12.8775 8.66745 12.4442 8.66664 12.0064Z" fill="#29294B"></path></svg>